<?xml version="1.0" standalone="no"?>
<!DOCTYPE svg PUBLIC "-//W3C//DTD SVG 20010904//EN"
 "http://www.w3.org/TR/2001/REC-SVG-20010904/DTD/svg10.dtd">
<svg version="1.0" xmlns="http://www.w3.org/2000/svg"
 width="256.000000pt" height="256.000000pt" viewBox="0 0 256.000000 256.000000"
 preserveAspectRatio="xMidYMid meet">

<g transform="translate(0.000000,256.000000) scale(0.100000,-0.100000)"
fill="#000000" stroke="none">
<path d="M1060 2540 c-266 -47 -503 -173 -692 -368 -180 -186 -289 -389 -344
-642 -26 -119 -26 -381 0 -500 55 -253 164 -456 344 -642 500 -516 1324 -516
1824 0 180 186 289 389 344 642 26 119 26 381 0 500 -55 253 -164 456 -344
642 -294 303 -718 441 -1132 368z m370 -10 c581 -72 1033 -528 1101 -1113 91
-785 -583 -1468 -1368 -1389 -339 34 -627 184 -841 438 -173 205 -267 428
-294 696 -80 791 611 1465 1402 1368z"/>
<path d="M1056 2485 c-489 -93 -876 -475 -976 -964 -28 -137 -28 -345 0 -482
101 -494 492 -878 984 -964 114 -19 318 -19 432 0 476 83 855 442 977 923 19
75 22 114 22 282 0 169 -3 207 -23 283 -114 453 -454 794 -905 908 -110 28
-394 35 -511 14z m517 -69 c117 -30 278 -105 381 -176 220 -152 392 -400 463
-670 34 -129 43 -353 19 -489 -30 -170 -96 -331 -198 -478 -59 -85 -208 -232
-297 -292 -94 -64 -256 -138 -368 -168 -90 -25 -113 -27 -293 -27 -180 0 -203
2 -293 27 -112 30 -274 104 -368 168 -89 60 -238 207 -297 292 -145 210 -212
426 -212 684 0 561 402 1043 957 1148 126 23 381 14 506 -19z"/>
<path d="M1156 2327 c-26 -19 -16 -50 21 -67 41 -19 42 -31 3 -23 -23 4 -30 2
-30 -10 0 -27 65 -38 88 -15 25 25 14 56 -23 68 -19 6 -35 15 -35 20 0 5 16 6
35 3 39 -6 43 -2 19 21 -19 19 -54 21 -78 3z"/>
<path d="M1316 2323 c-2 -10 -6 -40 -8 -68 -2 -40 0 -50 14 -53 13 -2 19 6 24
34 l7 37 19 -37 c18 -36 43 -55 55 -43 3 4 9 36 12 72 6 58 5 65 -11 65 -11 0
-21 -11 -26 -32 l-9 -33 -18 38 c-20 39 -50 50 -59 20z"/>
<path d="M1040 2307 c0 -8 5 -39 11 -70 12 -59 18 -64 67 -51 12 4 22 13 22
21 0 9 -8 13 -22 11 -20 -3 -24 3 -32 50 -7 41 -13 52 -27 52 -11 0 -19 -6
-19 -13z"/>
<path d="M1477 2313 c-7 -12 -29 -124 -25 -128 2 -2 23 -7 46 -11 34 -5 42 -4
42 9 0 9 -10 17 -22 19 -26 3 -22 23 4 22 25 -1 31 24 7 31 -29 9 -24 28 6 21
18 -5 25 -2 25 8 0 8 -3 17 -7 19 -18 11 -71 18 -76 10z"/>
<path d="M973 2297 c-17 -7 -34 -15 -38 -19 -7 -7 24 -128 34 -128 3 0 23 5
44 11 47 13 54 44 7 34 -35 -8 -41 8 -10 25 25 13 16 34 -11 27 -29 -8 -33 12
-5 23 17 6 24 14 20 25 -3 8 -7 15 -8 14 0 0 -15 -6 -33 -12z"/>
<path d="M1587 2283 c-4 -3 -7 -35 -7 -69 0 -55 3 -65 21 -75 20 -10 27 -6 70
42 54 60 56 66 32 72 -11 2 -30 -10 -50 -32 l-32 -36 -1 53 c0 36 -4 52 -13
52 -8 0 -17 -3 -20 -7z"/>
<path d="M858 2252 c-21 -8 -38 -18 -38 -22 0 -18 52 -120 61 -120 21 0 70 32
66 43 -5 13 -11 13 -39 2 -13 -5 -18 -2 -18 9 0 9 7 16 15 16 8 0 15 7 15 16
0 12 -6 15 -25 10 -30 -8 -33 6 -5 25 33 23 10 37 -32 21z"/>
<path d="M1710 2178 c-16 -29 -30 -57 -30 -63 0 -10 55 -45 71 -45 15 0 10 27
-6 34 -8 3 -15 12 -15 21 0 12 4 14 19 5 26 -13 31 -13 31 5 0 7 -8 18 -17 24
-26 14 -7 26 21 13 19 -9 25 -8 30 4 3 9 -8 21 -34 34 l-40 20 -30 -52z"/>
<path d="M770 2210 c-11 -7 -12 -14 -2 -34 10 -22 9 -27 -8 -36 -15 -8 -22 -6
-34 12 -12 17 -18 19 -30 9 -13 -11 -10 -19 18 -64 42 -66 78 -70 52 -6 -12
28 26 34 47 8 15 -19 20 -20 32 -8 11 12 8 23 -24 71 -27 43 -40 55 -51 48z"/>
<path d="M1805 2120 c-21 -28 -34 -57 -31 -65 7 -19 25 -19 32 0 10 25 22 17
16 -11 -3 -16 1 -30 9 -35 23 -14 29 -11 29 16 0 15 6 25 14 25 19 0 46 27 46
46 0 15 -57 74 -71 74 -4 0 -24 -23 -44 -50z m70 -11 c10 -15 -1 -23 -20 -15
-9 3 -13 10 -10 16 8 13 22 13 30 -1z"/>
<path d="M634 2115 c-4 -8 1 -26 10 -40 24 -36 20 -39 -18 -16 -31 19 -35 20
-47 5 -11 -14 -10 -21 4 -46 22 -39 17 -44 -17 -17 -25 20 -56 20 -56 1 0 -5
25 -26 55 -46 45 -30 59 -35 75 -26 25 13 25 15 -2 58 l-22 36 37 -23 c30 -18
40 -21 52 -11 20 17 20 20 -17 84 -33 58 -45 67 -54 41z"/>
<path d="M1101 2084 c-253 -57 -480 -248 -579 -486 -48 -115 -66 -222 -59
-357 7 -136 24 -206 78 -318 100 -210 302 -377 529 -440 91 -25 328 -25 420 0
97 27 236 100 316 166 123 102 228 265 271 421 25 91 25 329 0 420 -77 277
-307 509 -582 586 -83 23 -309 28 -394 8z m337 -50 c98 -19 259 -97 333 -161
117 -101 196 -220 246 -368 24 -72 27 -94 27 -225 0 -131 -3 -153 -27 -225
-66 -197 -192 -352 -364 -448 -38 -20 -104 -49 -148 -64 -72 -24 -94 -27 -225
-27 -131 0 -153 3 -225 27 -251 84 -428 261 -512 512 -24 72 -27 95 -27 225 0
131 2 152 27 225 50 149 130 267 246 368 71 61 235 142 326 161 93 19 228 20
323 0z"/>
<path d="M1243 1983 c-32 -50 -44 -53 -77 -18 -35 38 -68 30 -77 -19 -2 -10
-12 -24 -21 -30 -13 -8 -22 -5 -42 13 -35 33 -60 25 -66 -23 -7 -51 -30 -66
-67 -44 -40 23 -67 7 -59 -36 9 -47 -5 -60 -52 -53 -51 9 -72 -11 -53 -47 22
-41 11 -61 -37 -64 -52 -4 -61 -21 -36 -67 15 -28 16 -36 5 -49 -8 -9 -22 -16
-31 -16 -50 0 -71 -48 -30 -70 25 -13 27 -58 3 -66 -56 -17 -71 -56 -29 -75
44 -20 44 -58 0 -78 -34 -15 -28 -49 11 -71 37 -20 44 -54 16 -70 -42 -22 -22
-70 29 -70 32 0 44 -35 24 -69 -24 -41 -13 -59 38 -63 48 -3 59 -23 37 -64
-19 -37 2 -55 56 -47 37 5 44 3 49 -15 4 -11 4 -31 1 -44 -10 -38 16 -53 54
-33 43 22 69 7 73 -42 4 -47 29 -55 64 -22 30 29 54 18 66 -29 11 -40 41 -43
74 -7 13 14 27 25 33 25 14 0 41 -29 41 -45 0 -8 9 -17 20 -20 23 -7 50 10 50
31 0 7 9 18 21 25 18 9 25 7 49 -16 35 -34 61 -30 72 11 11 43 35 50 72 23 36
-27 60 -16 64 29 5 46 27 60 63 39 30 -17 58 -14 60 7 0 6 1 27 2 46 l2 35 50
0 c44 0 50 3 53 22 2 12 -1 30 -7 40 -16 31 4 53 49 53 30 0 40 4 45 21 4 13
1 27 -9 38 -30 33 -15 66 33 73 41 6 48 31 18 68 -30 35 -24 66 14 72 12 2 27
11 33 21 9 15 5 23 -23 46 -38 31 -39 60 -3 76 42 19 36 75 -9 75 -10 0 -23 9
-29 19 -8 16 -5 26 17 51 31 37 23 62 -22 70 -37 7 -54 34 -37 57 33 47 20 73
-34 73 -37 0 -59 26 -43 51 13 21 11 59 -3 61 -7 0 -31 2 -53 2 -39 1 -40 2
-41 36 -1 19 -2 40 -3 46 -2 21 -30 24 -60 7 -36 -21 -58 -7 -63 39 -5 46 -31
58 -62 29 -22 -21 -29 -23 -50 -13 -16 7 -26 21 -28 39 -4 40 -40 43 -71 7
-28 -32 -49 -28 -69 13 -18 38 -43 40 -65 6z m-78 -170 c14 -14 16 -35 13
-147 -3 -115 -6 -136 -26 -172 -13 -22 -37 -48 -52 -57 -31 -19 -106 -22 -130
-7 -11 7 -2 10 32 10 53 0 94 15 103 37 4 11 1 13 -12 8 -72 -29 -81 -28 -206
12 -117 38 -124 71 -35 168 61 67 122 111 198 142 66 27 93 29 115 6z m317 0
c104 -40 252 -165 272 -230 12 -37 -29 -69 -125 -97 -191 -57 -287 -23 -304
105 l-6 44 20 -50 c20 -48 52 -85 74 -85 5 0 2 9 -7 19 -31 34 -45 93 -46 184
0 74 3 90 20 107 24 24 47 25 102 3z m-161 -453 c10 -6 26 -24 35 -41 47 -92
-72 -174 -147 -100 -20 20 -29 39 -29 61 0 65 82 111 141 80z m-467 -40 c159
-53 219 -104 219 -184 0 -39 -29 -114 -40 -103 -2 3 0 14 6 25 15 29 14 95 -3
117 -12 17 -14 12 -18 -42 -4 -54 -10 -69 -59 -137 -78 -109 -114 -113 -174
-18 -45 71 -75 166 -82 258 -5 64 -3 74 16 93 27 27 30 27 135 -9z m976 3 c19
-25 21 -36 15 -93 -8 -77 -36 -167 -72 -230 -63 -110 -101 -119 -162 -36 -72
97 -100 148 -112 201 -11 48 -10 57 8 92 11 22 36 47 59 60 53 31 67 29 22 -2
-43 -29 -58 -53 -58 -92 l0 -28 19 30 c29 48 53 64 142 94 105 37 113 37 139
4z m-462 -287 c15 -8 38 -27 52 -42 l25 -28 -31 22 c-45 31 -82 43 -110 36
-31 -8 -31 -24 0 -24 37 0 87 -40 143 -115 70 -94 70 -120 -2 -151 -53 -22
-219 -31 -293 -14 -123 26 -131 59 -43 177 32 43 69 88 82 100 57 52 124 67
177 39z"/>
<path d="M1951 2026 c-8 -10 -8 -21 -1 -40 5 -15 10 -32 10 -37 0 -17 -15 -9
-25 12 -11 25 -29 27 -33 5 -3 -16 39 -66 56 -66 4 0 17 6 27 14 17 12 18 18
8 49 -12 41 -5 58 11 25 16 -31 36 -34 36 -5 0 45 -62 76 -89 43z"/>
<path d="M2057 1953 c-4 -3 -1 -13 5 -21 10 -11 9 -16 -5 -23 -9 -6 -29 -21
-45 -34 -21 -19 -24 -26 -15 -36 10 -10 21 -6 53 16 33 23 42 25 55 15 10 -8
19 -10 25 -4 7 7 -1 25 -21 52 -31 42 -40 48 -52 35z"/>
<path d="M442 1910 c-12 -16 -22 -33 -22 -39 0 -5 23 -26 52 -46 l52 -38 23
29 c13 16 23 35 23 42 0 18 -21 15 -36 -5 -16 -24 -32 -8 -16 17 16 26 -3 37
-27 16 -22 -20 -34 -10 -18 15 8 13 8 22 1 29 -7 7 -17 1 -32 -20z"/>
<path d="M386 1823 c-6 -15 8 -32 27 -33 11 0 8 -25 -5 -38 -8 -8 -17 -8 -31
0 -15 7 -22 7 -28 -3 -14 -22 -12 -24 52 -54 51 -25 62 -27 69 -15 9 15 -5 33
-34 43 -7 3 -5 11 5 22 13 13 21 15 37 6 17 -9 23 -8 31 7 8 16 1 23 -54 50
-55 27 -64 29 -69 15z"/>
<path d="M2071 1804 c-12 -15 -21 -34 -21 -44 0 -32 39 -70 71 -70 43 0 83 42
74 78 -16 65 -85 85 -124 36z m85 -29 c8 -20 -13 -45 -38 -45 -21 0 -33 22
-24 45 7 20 55 19 62 0z"/>
<path d="M308 1650 c-17 -52 -7 -79 17 -47 11 16 16 16 60 1 39 -14 49 -14 55
-3 12 19 6 25 -45 39 -37 10 -45 17 -45 36 0 42 -26 26 -42 -26z"/>
<path d="M2157 1678 c-43 -15 -57 -24 -55 -37 3 -11 12 -15 29 -13 19 2 29 -4
37 -24 9 -19 18 -25 39 -22 37 4 49 28 37 74 -5 21 -13 39 -19 40 -5 1 -36 -7
-68 -18z m63 -43 c0 -8 -7 -15 -15 -15 -8 0 -15 7 -15 15 0 8 7 15 15 15 8 0
15 -7 15 -15z"/>
<path d="M305 1470 c-3 -5 -3 -15 1 -21 4 -7 -5 -10 -27 -7 -25 2 -34 -1 -34
-12 0 -9 15 -17 45 -22 25 -4 57 -9 73 -12 36 -7 38 21 1 30 -14 4 -23 12 -20
19 8 23 -26 46 -39 25z"/>
<path d="M2283 1461 c-4 -17 -12 -21 -32 -19 -17 2 -26 -2 -26 -11 0 -10 21
-19 65 -27 84 -16 80 -16 80 1 0 9 -12 18 -30 21 -22 5 -29 11 -27 27 3 27
-23 34 -30 8z"/>
<path d="M238 1363 c7 -3 16 -2 19 1 4 3 -2 6 -13 5 -11 0 -14 -3 -6 -6z"/>
<path d="M537 647 c-26 -23 -47 -47 -47 -53 0 -14 43 -54 58 -54 15 0 15 5 0
30 -11 17 -8 24 26 59 21 21 35 44 32 50 -11 17 -17 14 -69 -32z"/>
<path d="M1932 657 c-51 -55 -6 -95 71 -62 10 4 17 3 17 -4 0 -6 -11 -16 -25
-21 -27 -10 -33 -25 -12 -33 19 -7 55 10 67 33 23 43 -16 83 -59 61 -11 -6
-24 -11 -30 -11 -18 0 -12 15 10 25 28 13 30 29 4 33 -12 2 -30 -8 -43 -21z"/>
<path d="M601 569 c-40 -45 -43 -51 -29 -65 14 -14 20 -10 62 38 25 29 45 57
43 63 -8 23 -35 10 -76 -36z"/>
<path d="M651 528 c-34 -47 -37 -55 -25 -68 13 -13 17 -12 34 10 16 21 20 22
34 11 22 -19 33 -5 17 20 -16 26 -6 37 19 21 47 -29 56 3 10 36 -16 12 -34 22
-39 22 -6 0 -28 -24 -50 -52z"/>
<path d="M1815 556 l-29 -24 42 -56 c24 -31 46 -56 50 -56 20 0 72 68 72 93 0
63 -78 88 -135 43z m95 -45 c0 -10 -6 -24 -14 -30 -11 -9 -18 -6 -35 18 -20
28 -20 30 -4 40 23 12 53 -4 53 -28z"/>
<path d="M751 466 c-17 -29 -31 -58 -31 -63 0 -5 16 -18 35 -29 26 -13 38 -15
46 -7 8 8 6 14 -10 22 -12 7 -21 18 -21 27 0 12 4 13 21 3 30 -16 51 5 23 25
-24 18 -10 35 15 19 20 -12 31 -8 31 12 0 9 -59 45 -75 45 -2 0 -17 -24 -34
-54z"/>
<path d="M1745 510 c-3 -5 1 -20 9 -32 25 -35 19 -40 -23 -18 -38 19 -71 18
-71 -1 0 -19 62 -119 74 -119 22 0 25 12 11 41 -22 41 -19 43 21 20 39 -23 43
-24 62 -12 11 6 7 21 -17 70 -29 57 -52 74 -66 51z"/>
<path d="M903 443 c-3 -10 -15 -40 -25 -66 -10 -27 -16 -53 -13 -58 12 -19 33
-8 45 24 l13 32 11 -35 c25 -78 46 -80 75 -4 26 69 26 84 2 84 -13 0 -21 -9
-26 -30 -8 -38 -21 -31 -29 15 -8 41 -42 66 -53 38z"/>
<path d="M1590 437 c-14 -6 -26 -12 -28 -13 -4 -2 39 -118 48 -127 11 -12 80
20 80 37 0 12 -7 14 -30 10 -34 -7 -42 11 -9 21 28 9 17 31 -15 27 -30 -3 -35
14 -6 23 25 8 27 35 3 34 -10 0 -29 -5 -43 -12z"/>
<path d="M1045 398 c-13 -42 -24 -123 -18 -129 5 -4 25 -11 46 -14 30 -6 37
-4 37 8 0 9 -9 19 -20 22 -28 9 -25 25 5 25 16 0 25 6 25 15 0 8 -9 15 -20 15
-11 0 -20 6 -20 13 0 8 13 13 34 13 33 0 34 -1 47 -60 13 -55 17 -61 42 -64
25 -3 30 3 60 65 l32 68 3 -67 3 -68 49 0 c38 0 50 4 50 15 0 10 -10 15 -30
15 -20 0 -30 5 -30 15 0 9 9 15 25 15 16 0 25 6 25 15 0 9 -9 15 -25 15 -31 0
-33 17 -3 22 13 2 24 11 26 22 4 16 0 18 -28 12 -18 -3 -50 -6 -72 -6 -37 0
-40 -3 -60 -47 l-21 -48 -12 50 c-11 49 -12 50 -55 57 -25 4 -55 10 -68 13
-13 3 -24 0 -27 -7z"/>
<path d="M1417 393 c-14 -4 -17 -11 -13 -29 4 -13 9 -44 13 -69 4 -35 10 -45
24 -45 14 0 19 7 19 28 l1 27 18 -22 c19 -23 41 -29 54 -16 4 3 0 14 -9 24
-11 12 -13 25 -8 41 10 28 6 50 -9 60 -13 8 -61 9 -90 1z m63 -37 c0 -8 -7
-16 -15 -20 -15 -5 -21 14 -8 27 11 12 23 8 23 -7z"/>
</g>
</svg>
